<?xml version="1.0" standalone="no"?><!DOCTYPE svg PUBLIC "-//W3C//DTD SVG 1.1//EN" "http://www.w3.org/Graphics/SVG/1.1/DTD/svg11.dtd"><svg t="1742626676030" class="icon" viewBox="0 0 1024 1024" version="1.1" xmlns="http://www.w3.org/2000/svg" p-id="4399" xmlns:xlink="http://www.w3.org/1999/xlink" width="200" height="200"><path d="M238.336 593.5616m5.12 0l130.8672 0q5.12 0 5.12 5.12l0 201.1136q0 5.12-5.12 5.12l-130.8672 0q-5.12 0-5.12-5.12l0-201.1136q0-5.12 5.12-5.12Z" fill="#004097" p-id="4400"></path><path d="M441.4464 513.024m5.12 0l130.8672 0q5.12 0 5.12 5.12l0 281.6512q0 5.12-5.12 5.12l-130.8672 0q-5.12 0-5.12-5.12l0-281.6512q0-5.12 5.12-5.12Z" fill="#004097" p-id="4401"></path><path d="M644.5056 395.3152m5.12 0l130.8672 0q5.12 0 5.12 5.12l0 399.36q0 5.12-5.12 5.12l-130.8672 0q-5.12 0-5.12-5.12l0-399.36q0-5.12 5.12-5.12Z" fill="#004097" p-id="4402"></path><path d="M658.6368 219.0848c-7.936 0-14.3872 6.4512-14.3872 14.3872s6.4512 14.3872 14.3872 14.3872h68.8128l-156.1088 154.8288-93.0304-77.1584-220.0576 221.4912a14.3872 14.3872 0 0 0 10.1888 24.5248c3.6864 0 7.3728-1.4336 10.1888-4.2496l201.5232-202.8544 92.8768 77.056 168.2432-166.912v47.0016c0 7.936 6.4512 14.3872 14.3872 14.3872s14.3872-6.4512 14.3872-14.3872V219.0848h-111.4624z" fill="#004097" p-id="4403"></path></svg>